<svg width="500" height="84" viewBox="0 0 500 84" fill="none" xmlns="http://www.w3.org/2000/svg">
<path d="M0 73.3267V46.0547L28.3808 78.4899H5.16317C2.31163 78.4899 0 76.1783 0 73.3267Z" fill="#333949"/>
<path d="M23.4818 5.84851H5.33212C2.48058 5.84851 0.168945 8.16014 0.168945 11.0117V18.6875C9.0098 18.5748 22.2992 18.4172 30.408 18.6875C38.5169 18.9578 40.8819 26.3458 41.0509 30.006C40.9157 38.5203 33.8993 41.5498 30.408 42.0003H4.22335L34.2935 78.1521H49.6665L27.0294 51.7984C49.3286 52.981 55.1286 36.2002 54.7345 30.006C54.1939 10.8152 37.9537 5.90482 29.9012 5.84851H23.4818Z" fill="#333949"/>
<path d="M68.1538 5.51038H42.909C69.7694 10.2405 63.181 56.3594 36.6584 55.1768L56.0858 78.3111H68.1539C71.0054 78.3111 73.317 75.9995 73.317 73.148V10.6736C73.317 7.82201 71.0054 5.51038 68.1538 5.51038Z" fill="#333949"/>
<path d="M29.5634 22.9104H0V37.4387H30.9148C36.6586 36.7629 37.2166 30.0056 36.1518 27.8095C34.0281 23.4295 31.9962 23.1933 29.5837 22.9128L29.5634 22.9104Z" fill="#333949"/>
<path d="M100.428 7.63976H123.9C128.944 7.63976 133.244 8.39938 136.799 9.91862C140.354 11.4379 143.073 13.6863 144.957 16.664C146.871 19.6113 147.828 23.2575 147.828 27.6025C147.828 30.9145 147.221 33.8314 146.005 36.3533C144.79 38.8753 143.073 41.0022 140.855 42.7341C138.637 44.4357 135.994 45.7574 132.925 46.6993L129.461 48.3857H108.359L108.268 39.3158H124.083C126.817 39.3158 129.096 38.8297 130.919 37.8574C132.742 36.8851 134.11 35.5633 135.021 33.8922C135.963 32.1906 136.434 30.2764 136.434 28.1495C136.434 25.8402 135.978 23.8348 135.067 22.1333C134.186 20.4013 132.818 19.0796 130.965 18.1681C129.111 17.2261 126.757 16.7552 123.9 16.7552H111.868V74H100.428V7.63976ZM138.303 74L122.715 44.1926L134.702 44.147L150.517 73.4075V74H138.303ZM179.869 74.9115C176.223 74.9115 172.926 74.319 169.979 73.134C167.062 71.9186 164.57 70.2323 162.504 68.075C160.468 65.9177 158.904 63.3805 157.81 60.4636C156.716 57.5467 156.169 54.4019 156.169 51.0291V49.2061C156.169 45.3472 156.731 41.853 157.855 38.7233C158.98 35.5937 160.544 32.9199 162.55 30.7018C164.555 28.4533 166.925 26.7366 169.66 25.5516C172.394 24.3666 175.357 23.7741 178.547 23.7741C182.072 23.7741 185.156 24.3666 187.8 25.5516C190.443 26.7366 192.631 28.4077 194.363 30.565C196.125 32.692 197.432 35.2291 198.282 38.1764C199.163 41.1237 199.604 44.3749 199.604 47.9299V52.6243H161.502V44.7395H188.757V43.8735C188.696 41.8985 188.301 40.0451 187.572 38.3131C186.873 36.5812 185.794 35.1835 184.336 34.12C182.877 33.0566 180.933 32.5249 178.502 32.5249C176.679 32.5249 175.053 32.9199 173.625 33.7099C172.227 34.4695 171.058 35.5785 170.116 37.037C169.174 38.4954 168.444 40.2578 167.928 42.3239C167.442 44.3597 167.199 46.6537 167.199 49.2061V51.0291C167.199 53.1865 167.487 55.1919 168.065 57.0453C168.672 58.8684 169.554 60.4636 170.708 61.8309C171.863 63.1982 173.26 64.2769 174.901 65.0669C176.542 65.8265 178.411 66.2063 180.507 66.2063C183.151 66.2063 185.505 65.6746 187.572 64.6111C189.638 63.5477 191.431 62.0436 192.95 60.099L198.738 65.705C197.675 67.2546 196.292 68.7434 194.591 70.1715C192.889 71.5692 190.808 72.7086 188.346 73.5898C185.916 74.471 183.09 74.9115 179.869 74.9115ZM219.157 34.7126V74H208.173V24.6856H218.519L219.157 34.7126ZM217.379 47.5197L213.642 47.4741C213.642 44.071 214.067 40.9262 214.918 38.0397C215.769 35.1531 217.014 32.6464 218.655 30.5195C220.296 28.3621 222.332 26.7062 224.763 25.5516C227.224 24.3666 230.065 23.7741 233.285 23.7741C235.534 23.7741 237.585 24.1083 239.438 24.7767C241.322 25.4148 242.948 26.4327 244.315 27.8304C245.713 29.2281 246.776 31.0208 247.506 33.2085C248.265 35.3962 248.645 38.0397 248.645 41.1389V74H237.661V42.096C237.661 39.6956 237.296 37.8118 236.567 36.4445C235.868 35.0772 234.85 34.1049 233.513 33.5275C232.207 32.9199 230.642 32.616 228.819 32.616C226.753 32.616 224.99 33.011 223.532 33.801C222.104 34.591 220.934 35.6697 220.023 37.037C219.111 38.4043 218.443 39.9843 218.017 41.777C217.592 43.5697 217.379 45.4839 217.379 47.5197ZM247.961 44.6028L242.811 45.7422C242.811 42.7645 243.221 39.9539 244.042 37.3104C244.892 34.6366 246.123 32.297 247.733 30.2916C249.374 28.2558 251.395 26.6606 253.795 25.506C256.196 24.3514 258.945 23.7741 262.045 23.7741C264.567 23.7741 266.815 24.1235 268.79 24.8223C270.795 25.4908 272.497 26.5543 273.895 28.0127C275.292 29.4712 276.356 31.3702 277.085 33.7099C277.814 36.0191 278.179 38.8145 278.179 42.096V74H267.149V42.0505C267.149 39.5589 266.785 37.6295 266.055 36.2622C265.357 34.8949 264.354 33.9529 263.047 33.4364C261.741 32.8895 260.176 32.616 258.353 32.616C256.651 32.616 255.147 32.935 253.841 33.5731C252.565 34.1808 251.486 35.0468 250.605 36.171C249.724 37.2649 249.055 38.5258 248.599 39.9539C248.174 41.382 247.961 42.9316 247.961 44.6028ZM311.222 74.9115C307.576 74.9115 304.279 74.319 301.332 73.134C298.415 71.9186 295.924 70.2323 293.857 68.075C291.822 65.9177 290.257 63.3805 289.163 60.4636C288.069 57.5467 287.522 54.4019 287.522 51.0291V49.2061C287.522 45.3472 288.084 41.853 289.209 38.7233C290.333 35.5937 291.898 32.9199 293.903 30.7018C295.908 28.4533 298.278 26.7366 301.013 25.5516C303.748 24.3666 306.71 23.7741 309.901 23.7741C313.425 23.7741 316.509 24.3666 319.153 25.5516C321.796 26.7366 323.984 28.4077 325.716 30.565C327.478 32.692 328.785 35.2291 329.635 38.1764C330.517 41.1237 330.957 44.3749 330.957 47.9299V52.6243H292.855V44.7395H320.11V43.8735C320.049 41.8985 319.654 40.0451 318.925 38.3131C318.226 36.5812 317.147 35.1835 315.689 34.12C314.23 33.0566 312.286 32.5249 309.855 32.5249C308.032 32.5249 306.406 32.9199 304.978 33.7099C303.581 34.4695 302.411 35.5785 301.469 37.037C300.527 38.4954 299.798 40.2578 299.281 42.3239C298.795 44.3597 298.552 46.6537 298.552 49.2061V51.0291C298.552 53.1865 298.841 55.1919 299.418 57.0453C300.026 58.8684 300.907 60.4636 302.061 61.8309C303.216 63.1982 304.614 64.2769 306.254 65.0669C307.895 65.8265 309.764 66.2063 311.86 66.2063C314.504 66.2063 316.859 65.6746 318.925 64.6111C320.991 63.5477 322.784 62.0436 324.303 60.099L330.091 65.705C329.028 67.2546 327.645 68.7434 325.944 70.1715C324.242 71.5692 322.161 72.7086 319.7 73.5898C317.269 74.471 314.443 74.9115 311.222 74.9115ZM367.191 60.6459C367.191 59.5521 366.918 58.5646 366.371 57.6834C365.824 56.7719 364.775 55.9515 363.226 55.2222C361.707 54.493 359.458 53.8245 356.48 53.2168C353.867 52.6395 351.467 51.9559 349.279 51.1659C347.122 50.3455 345.268 49.358 343.719 48.2034C342.169 47.0487 340.969 45.6814 340.118 44.1014C339.267 42.5214 338.842 40.6983 338.842 38.6322C338.842 36.6268 339.283 34.7277 340.164 32.935C341.045 31.1423 342.306 29.5623 343.947 28.195C345.587 26.8277 347.578 25.7491 349.917 24.9591C352.287 24.1691 354.931 23.7741 357.848 23.7741C361.98 23.7741 365.52 24.4729 368.467 25.8706C371.445 27.2379 373.724 29.1066 375.304 31.4766C376.884 33.8162 377.674 36.4597 377.674 39.407H366.69C366.69 38.1004 366.355 36.8851 365.687 35.7608C365.049 34.6062 364.077 33.6795 362.77 32.9806C361.463 32.2514 359.823 31.8868 357.848 31.8868C355.964 31.8868 354.399 32.1906 353.153 32.7983C351.938 33.3756 351.026 34.1352 350.419 35.0772C349.841 36.0191 349.553 37.0522 349.553 38.1764C349.553 38.9968 349.705 39.7412 350.008 40.4097C350.343 41.0478 350.89 41.6403 351.649 42.1872C352.409 42.7037 353.442 43.1899 354.748 43.6457C356.085 44.1014 357.757 44.542 359.762 44.9674C363.53 45.7574 366.766 46.7753 369.47 48.0211C372.204 49.2364 374.301 50.8165 375.759 52.7611C377.218 54.6753 377.947 57.1061 377.947 60.0534C377.947 62.2411 377.476 64.2465 376.534 66.0696C375.623 67.8623 374.286 69.4271 372.523 70.764C370.761 72.0706 368.649 73.0885 366.188 73.8177C363.757 74.5469 361.023 74.9115 357.984 74.9115C353.518 74.9115 349.735 74.1215 346.636 72.5415C343.536 70.9311 341.182 68.8802 339.571 66.3886C337.991 63.8667 337.201 61.2536 337.201 58.5494H347.821C347.942 60.5851 348.504 62.2107 349.507 63.4261C350.54 64.6111 351.816 65.4771 353.336 66.024C354.885 66.5406 356.48 66.7988 358.121 66.7988C360.096 66.7988 361.752 66.5406 363.089 66.024C364.426 65.4771 365.444 64.7479 366.143 63.8363C366.842 62.8944 367.191 61.8309 367.191 60.6459ZM385.467 49.8897V48.8414C385.467 45.2864 385.984 41.9897 387.017 38.9512C388.05 35.8824 389.539 33.2237 391.484 30.9752C393.459 28.6964 395.859 26.9341 398.685 25.6883C401.541 24.4121 404.762 23.7741 408.347 23.7741C411.963 23.7741 415.184 24.4121 418.009 25.6883C420.866 26.9341 423.281 28.6964 425.256 30.9752C427.231 33.2237 428.735 35.8824 429.768 38.9512C430.801 41.9897 431.318 45.2864 431.318 48.8414V49.8897C431.318 53.4447 430.801 56.7415 429.768 59.7799C428.735 62.8184 427.231 65.4771 425.256 67.7559C423.281 70.0044 420.881 71.7667 418.055 73.0429C415.229 74.2887 412.024 74.9115 408.438 74.9115C404.822 74.9115 401.586 74.2887 398.73 73.0429C395.905 71.7667 393.504 70.0044 391.529 67.7559C389.554 65.4771 388.05 62.8184 387.017 59.7799C385.984 56.7415 385.467 53.4447 385.467 49.8897ZM396.451 48.8414V49.8897C396.451 52.1078 396.679 54.2044 397.135 56.1794C397.591 58.1544 398.305 59.8863 399.277 61.3751C400.25 62.864 401.495 64.0338 403.015 64.8846C404.534 65.7354 406.342 66.1607 408.438 66.1607C410.474 66.1607 412.236 65.7354 413.725 64.8846C415.244 64.0338 416.49 62.864 417.462 61.3751C418.435 59.8863 419.149 58.1544 419.605 56.1794C420.091 54.2044 420.334 52.1078 420.334 49.8897V48.8414C420.334 46.6537 420.091 44.5876 419.605 42.643C419.149 40.668 418.42 38.9208 417.417 37.4016C416.445 35.8824 415.199 34.6974 413.68 33.8466C412.191 32.9654 410.413 32.5249 408.347 32.5249C406.281 32.5249 404.488 32.9654 402.969 33.8466C401.48 34.6974 400.25 35.8824 399.277 37.4016C398.305 38.9208 397.591 40.668 397.135 42.643C396.679 44.5876 396.451 46.6537 396.451 48.8414ZM455.383 74H444.399V19.9456C444.399 16.269 445.082 13.185 446.45 10.6934C447.847 8.17149 449.837 6.27245 452.42 4.99629C455.003 3.68975 458.056 3.03648 461.581 3.03648C462.675 3.03648 463.754 3.11244 464.817 3.26436C465.881 3.3859 466.914 3.5834 467.916 3.85686L467.643 12.3342C467.035 12.1823 466.367 12.0759 465.637 12.0152C464.939 11.9544 464.179 11.924 463.359 11.924C461.687 11.924 460.244 12.243 459.029 12.8811C457.844 13.4888 456.932 14.3852 456.294 15.5702C455.686 16.7552 455.383 18.2136 455.383 19.9456V74ZM465.546 24.6856V32.7072H436.833V24.6856H465.546ZM496.129 24.6856V32.7072H468.326V24.6856H496.129ZM476.348 12.6077H487.332V60.3725C487.332 61.8917 487.545 63.0615 487.97 63.8819C488.426 64.6719 489.049 65.2036 489.839 65.4771C490.629 65.7505 491.556 65.8873 492.619 65.8873C493.379 65.8873 494.108 65.8417 494.807 65.7505C495.506 65.6594 496.068 65.5682 496.493 65.4771L496.539 73.8633C495.627 74.1367 494.564 74.3798 493.348 74.5925C492.163 74.8052 490.796 74.9115 489.246 74.9115C486.724 74.9115 484.491 74.471 482.547 73.5898C480.602 72.6783 479.083 71.2046 477.989 69.1688C476.895 67.1331 476.348 64.4288 476.348 61.0561V12.6077Z" fill="#333949"/>
</svg>
